<?xml version="1.0" standalone="no"?><!DOCTYPE svg PUBLIC "-//W3C//DTD SVG 1.1//EN" "http://www.w3.org/Graphics/SVG/1.1/DTD/svg11.dtd"><svg t="1660966298299" class="icon" viewBox="0 0 1024 1024" version="1.1" xmlns="http://www.w3.org/2000/svg" p-id="6138" xmlns:xlink="http://www.w3.org/1999/xlink" width="200" height="200"><defs><style type="text/css"></style></defs><path d="M617.8 433.3l-150.6 86.9c-9.5 5.5-21.4-1.4-21.4-12.3V334.1c0-11 11.9-17.8 21.4-12.3l150.6 86.9c9.5 5.4 9.5 19.2 0 24.6zM654.9 761.7c-4.4 0-8.4 1.8-11.8 5.4-3.4 3.6-5.6 8.4-6.4 14.4H671c0-13.2-5.4-19.8-16.1-19.8zM441.1 807.3c0 3.3 1.1 6 3.4 8s5.3 3 9.2 3c5.3 0 9.6-1.9 13.1-5.6 3.4-3.7 5.1-8.4 5.1-13.9v-6.3l-16.7 2.2c-9.4 1.1-14.1 5.3-14.1 12.6zM300.3 731.2h-11.7v40H300c15.5 0 23.3-6.8 23.3-20.3 0-13.1-7.6-19.7-23-19.7z" fill="#f4ea2a" p-id="6139"></path><path d="M893.2 64.4H130.8c-36.5 0-66.4 29.9-66.4 66.4v762.4c0 36.5 29.9 66.4 66.4 66.4h762.4c36.5 0 66.4-29.9 66.4-66.4V130.8c0-36.5-29.9-66.4-66.4-66.4zM512 185.9c128.5 0 232.6 104.2 232.6 232.6S640.5 651.2 512 651.2 279.4 547.1 279.4 418.6 383.5 185.9 512 185.9zM337.2 780.5c-9.3 7.7-21 11.3-35 11h-13.6v43.2h-26.4v-124h42.7c30.9 0 46.3 13.1 46.3 39.2-0.1 12.7-4.7 22.9-14 30.6z m61.9 54.2h-26.4v-124h26.4v124z m97.2 0h-24.6v-12.9h-0.3c-6 10-14.9 15.1-26.5 15.1-8.4 0-15.1-2.4-20.1-7.2-5-4.8-7.6-11.3-7.6-19.5 0-17 10.1-26.9 30.3-29.6l24.3-3.3c0-10.3-5.4-15.5-16.1-15.5-10.6 0-20.5 3.2-29.9 9.6v-19.9c4-2.2 9.4-4.1 16.1-5.4 6.7-1.4 12.4-2.1 17.2-2.1 24.8 0 37.2 12.4 37.2 37.2v53.5z m71.2 7.9c-8.5 22.4-21.2 33.6-38.1 33.6-6.7 0-11.9-0.7-15.5-2.1v-20.7c3.5 2 7.3 3 11.5 3 7 0 12-3.4 14.9-10.2l4.9-11.6-35.8-88.4H538l17.3 55.5c1.1 3.4 1.8 7.1 2.3 11.3h0.5c0.4-2.8 1.3-6.5 2.6-11.1l17.7-55.7H604l-36.5 96.4z m127.6-44.9h-58.3c0.9 13.7 9.2 20.6 24.8 20.6 9.8 0 18.4-2.4 25.9-7.2v19c-8.1 4.5-18.6 6.8-31.7 6.8-14.1 0-25.1-4-32.9-11.9-7.8-8-11.7-19-11.7-33.2 0-14.1 4.2-25.6 12.5-34.5 8.3-8.8 18.8-13.3 31.4-13.3 12.5 0 22.4 3.8 29.4 11.4 7.1 7.6 10.6 18.1 10.6 31.4v10.9z m76.5-28.1c-3.2-1.8-7-2.7-11.5-2.7-5.9 0-10.5 2.2-14 6.7s-5.2 10.7-5.2 18.5v42.6H715v-88.6h26v16.7h0.3c4.3-12.1 12-18.2 23.3-18.2 3 0 5.4 0.3 7 1v24z" fill="#f4ea2a" p-id="6140"></path></svg>