<?xml version="1.0" ?><svg id="Capa_1" style="enable-background:new 0 0 128 128;" version="1.1" viewBox="0 0 128 128" xml:space="preserve" xmlns="http://www.w3.org/2000/svg" xmlns:xlink="http://www.w3.org/1999/xlink"><style type="text/css">
	.st0{fill:#21A365;}
	.st1{fill:#107C41;}
	.st2{fill:#185B37;}
	.st3{fill:#33C481;}
	.st4{fill:#17864C;}
	.st5{fill:#FFFFFF;}
	.st6{fill:#036C70;}
	.st7{fill:#1A9BA1;}
	.st8{fill:#37C6D0;}
	.st9{fill:#04878B;}
	.st10{fill:#4F59CA;}
	.st11{fill:#7B82EA;}
	.st12{fill:#4C53BB;}
	.st13{fill:#0F78D5;}
	.st14{fill:#29A7EB;}
	.st15{fill:#0358A8;}
	.st16{fill:#0F79D6;}
	.st17{fill:#038387;}
	.st18{fill:#048A8E;}
	.st19{fill:#C8421D;}
	.st20{fill:#FF8F6A;}
	.st21{fill:#ED6B47;}
	.st22{fill:#891323;}
	.st23{fill:#AF2131;}
	.st24{fill:#C94E60;}
	.st25{fill:#E08195;}
	.st26{fill:#B42839;}
	.st27{fill:#0464B8;}
	.st28{fill:#0377D4;}
	.st29{fill:#4FD8FF;}
	.st30{fill:#1681D7;}
	.st31{fill:#0178D4;}
	.st32{fill:#042071;}
	.st33{fill:#168FDE;}
	.st34{fill:#CA64EA;}
	.st35{fill:#7E1FAF;}
	.st36{fill:#AE4BD5;}
	.st37{fill:#9332BF;}
	.st38{fill:#7719AA;}
	.st39{fill:#0078D4;}
	.st40{fill:#1490DF;}
	.st41{fill:#0364B8;}
	.st42{fill:#28A8EA;}
	.st43{fill:#41A5ED;}
	.st44{fill:#2C7BD5;}
	.st45{fill:#195ABE;}
	.st46{fill:#103E91;}
	.st47{fill:#2166C3;}
	.st48{opacity:0.2;}
</style><path class="st19" d="M70.3,122.3c32,0,58-26,58-58h-116C12.3,96.4,38.3,122.3,70.3,122.3z"/><path class="st20" d="M70.3,6.3v58h58C128.3,32.3,102.4,6.3,70.3,6.3z"/><path class="st21" d="M12.4,64.3h58v-58C38.4,6.3,12.4,32.3,12.4,64.3z"/><path class="st19" d="M59.3,96.5h-53c-3.5,0-6.4-2.9-6.4-6.4V37.9c0-3.5,2.9-6.4,6.4-6.4h53c3.5,0,6.4,2.9,6.4,6.4v52.2  C65.7,93.6,62.8,96.5,59.3,96.5z"/><g><path class="st5" d="M28.3,68.6v13.7h-7.7V44.5h15.3c4.4,0,7.9,1.1,10.4,3.3c2.5,2.2,3.8,5.1,3.8,8.8c0,3.6-1.3,6.5-3.8,8.7   c-2.5,2.2-6,3.3-10.4,3.3H28.3z M28.3,62.8h7.6c2.1,0,3.8-0.6,4.9-1.7c1.1-1.2,1.7-2.6,1.7-4.4c0-1.8-0.5-3.3-1.6-4.5   c-1.1-1.2-2.7-1.8-4.9-1.8h-7.6V62.8z"/></g><path class="st48" d="M65.5,37.3c0,0.2,0,0.4,0,0.6v52.2c0,3.5-2.9,6.4-6.4,6.4H22.3l3.8,5.7h38.3c3.5,0,6.4-2.9,6.4-6.4V43.6  C70.9,40.4,68.6,37.7,65.5,37.3z"/></svg>