<?xml version="1.0" encoding="UTF-8"?>
<svg width="30px" height="26px" viewBox="0 0 30 26" version="1.1" xmlns="http://www.w3.org/2000/svg" xmlns:xlink="http://www.w3.org/1999/xlink">
    <title>file_web_logo_32</title>
    <defs>
        <path d="M15.3597991,1.04904666 L27.5515575,11.7890769 L27.2909745,11.794797 L19.7931463,11.794797 L17.3237309,25.5584035 L10.9733913,25.5584035 L13.440014,11.794797 L8.46058124,11.794797 L3.97395746,7.00743253 L14.3006036,6.98984868 L15.3597991,1.04904666 Z" id="path-1"></path>
    </defs>
    <g id="页面-1" stroke="none" stroke-width="1" fill="none" fill-rule="evenodd">
        <g id="Logo/normal" transform="translate(-1.000000, -3.000000)">
            <g id="编组" transform="translate(1.066667, 3.200000)">
                <path d="M23.847907,1.05926862e-05 L4.9183719,1.05926862e-05 C4.65714449,1.05926862e-05 4.4337263,0.18495889 4.38829078,0.438547793 L0.00832770201,24.9355112 C-0.0497825078,25.2604948 0.203603786,25.5583612 0.538193996,25.5583612 L10.9734343,25.5583612 L11.8004038,25.3055137 L16.6465375,25.3055137 L17.3237739,25.5583612 L25.3623171,25.5583612 C25.6234371,25.5583612 25.8468553,25.3735188 25.8922908,25.119824 L29.4950164,4.97031072 L23.847907,1.05926862e-05 Z" id="Fill-1" fill="#1E6FFF"></path>
                <path d="M23.8479392,-2.43003338e-13 L29.4950486,4.97030013 L23.600568,4.97030013 C23.2660852,4.97030013 23.0124841,4.67232787 23.0705943,4.34745019 L23.0705943,4.34745019 L23.8479392,-2.43003338e-13 Z" id="形状结合" fill="#00DCFF" fill-rule="nonzero"></path>
                <mask id="mask-2" fill="white">
                    <use xlink:href="#path-1"></use>
                </mask>
                <use id="形状结合" fill="#FFFFFF" xlink:href="#path-1"></use>
            </g>
        </g>
    </g>
</svg>