<?xml version="1.0" standalone="no"?><!DOCTYPE svg PUBLIC "-//W3C//DTD SVG 1.1//EN" "http://www.w3.org/Graphics/SVG/1.1/DTD/svg11.dtd"><svg t="1643479431729" class="icon" viewBox="0 0 1024 1024" version="1.1" xmlns="http://www.w3.org/2000/svg" p-id="996" xmlns:xlink="http://www.w3.org/1999/xlink" width="200" height="200"><defs><style type="text/css"></style></defs><path d="M0 0m93.090909 0l837.818182 0q93.090909 0 93.090909 93.090909l0 837.818182q0 93.090909-93.090909 93.090909l-837.818182 0q-93.090909 0-93.090909-93.090909l0-837.818182q0-93.090909 93.090909-93.090909Z" fill="#576A95" p-id="997"></path><path d="M418.909091 0h93.288727v92.823273H418.909091V0z m92.893091 92.823273H605.090909v92.834909h-93.288727V92.823273zM418.909091 185.658182h93.288727v91.671273H418.909091v-91.671273z m92.893091 91.671273H605.090909v91.694545h-93.288727v-91.694545zM418.909091 369.024h93.288727v91.671273H418.909091v-91.682909z m92.125091 98.548364h92.509091v92.055272h-92.509091v-92.055272zM418.909091 565.946182v183.365818a45.730909 45.730909 0 0 0 13.498182 32.407273 46.184727 46.184727 0 0 0 32.570182 13.428363h94.04509c12.218182 0 23.936-4.829091 32.581819-13.428363A45.730909 45.730909 0 0 0 605.090909 749.312V565.946182H418.909091z m140.113454 197.12H464.989091v-92.066909h94.045091v92.066909z" fill="#FFFFFF" p-id="998"></path></svg>