<?xml version="1.0" ?><!DOCTYPE svg  PUBLIC '-//W3C//DTD SVG 1.1//EN'  'http://www.w3.org/Graphics/SVG/1.1/DTD/svg11.dtd'><svg height="512px" style="enable-background:new 0 0 512 512;" version="1.1" viewBox="0 0 512 512" width="512px" xml:space="preserve" xmlns="http://www.w3.org/2000/svg" xmlns:xlink="http://www.w3.org/1999/xlink"><g id="_x32_85-r-project"><g><g><path d="M485.999,232.723c0-85.111-103.005-154.072-229.998-154.072c-126.994,0-230,68.961-230,154.072     c0,75.849,81.787,138.871,189.542,151.617v49.01h78.461v-48.693c19.238-2.138,37.687-5.858,54.945-11.006l31.749,59.699h88.675     l-53.362-90.022C459.159,315.301,485.999,276.109,485.999,232.723L485.999,232.723z M116.418,244.203     c0-58.192,78.302-105.301,174.813-105.301c96.513,0,167.771,32.224,167.771,105.301c0,39.667-20.982,67.297-55.658,84.24     c-1.902-1.267-3.723-2.296-5.067-2.93c-8.077-4.116-22.012-8.313-22.012-8.313s68.564-5.066,68.564-73.393     s-71.731-69.594-71.731-69.594H215.543v164.919C156.875,322.11,116.418,286.007,116.418,244.203L116.418,244.203z      M294.637,274.526v-44.021c45.762,0,69.516-5.383,69.516,21.614C364.152,281.019,333.905,274.526,294.637,274.526     L294.637,274.526z M293.924,331.928h21.06c8.552,0,14.965,9.262,19.002,15.199c-12.747,1.507-26.127,2.218-40.062,2.299V331.928z     " style="fill:#2167BA;"/></g></g></g><g id="Layer_1"/></svg>